<svg width="22" height="41" viewBox="0 0 22 41" fill="none" xmlns="http://www.w3.org/2000/svg">
<path d="M21.0584 30.0671L12.6555 20.8765L21.0584 11.6869C21.3223 11.3975 21.4569 11.0119 21.4287 10.6209C21.4006 10.2295 21.2135 9.86667 20.9099 9.61784L10.6951 1.22736C10.267 0.875529 9.67501 0.801636 9.17384 1.03861C8.67267 1.27457 8.35329 1.77801 8.35329 2.33154V16.1717L2.48932 9.75767C1.95658 9.17464 1.05018 9.1336 0.466427 9.66614C-0.117322 10.1987 -0.158416 11.103 0.374787 11.6865L8.35329 20.4132V21.34L0.374865 30.0671C-0.158806 30.6496 -0.117712 31.5545 0.466506 32.0875C1.05072 32.6205 1.95627 32.5794 2.48939 31.9955L8.3529 25.5824V39.4216C8.3529 39.9746 8.67275 40.4785 9.17345 40.715C9.36821 40.8065 9.57728 40.8519 9.78493 40.8519C10.1109 40.8519 10.4336 40.7412 10.6952 40.5267L20.9099 32.1361C21.2135 31.8868 21.4006 31.5239 21.4287 31.133C21.4569 30.7421 21.3233 30.3564 21.0584 30.0671ZM11.2173 5.35967L17.9261 10.8698L11.2173 18.2078V5.35967ZM11.2173 36.3934V23.5458L17.9261 30.8833L11.2173 36.3934Z" fill="#C4C4C4"/>
</svg>
